<svg width="512" height="512" viewBox="0 0 512 512" fill="none" xmlns="http://www.w3.org/2000/svg">
  <defs>
    <linearGradient id="iconBg" x1="64" y1="48" x2="448" y2="464" gradientUnits="userSpaceOnUse">
      <stop stop-color="#0A0E1A"/>
      <stop offset="0.55" stop-color="#121B33"/>
      <stop offset="1" stop-color="#070B14"/>
    </linearGradient>
    <linearGradient id="iconStroke" x1="88" y1="88" x2="424" y2="424" gradientUnits="userSpaceOnUse">
      <stop stop-color="#A855F7"/>
      <stop offset="1" stop-color="#67E8F9"/>
    </linearGradient>
    <filter id="iconGlow" x="46" y="46" width="420" height="420" filterUnits="userSpaceOnUse" color-interpolation-filters="sRGB">
      <feFlood flood-opacity="0" result="BackgroundImageFix"/>
      <feBlend mode="normal" in="SourceGraphic" in2="BackgroundImageFix" result="shape"/>
      <feGaussianBlur stdDeviation="20" result="effect1_foregroundBlur"/>
    </filter>
  </defs>

  <rect width="512" height="512" rx="124" fill="url(#iconBg)"/>
  <rect x="62" y="62" width="388" height="388" rx="102" stroke="url(#iconStroke)" stroke-width="10" stroke-opacity="0.95"/>

  <circle cx="138" cy="122" r="84" fill="#8B5CF6" fill-opacity="0.12"/>
  <circle cx="386" cy="394" r="92" fill="#06B6D4" fill-opacity="0.1"/>

  <g filter="url(#iconGlow)">
    <path d="M156 380V132H266C312.392 132 350 169.608 350 216C350 249.119 330.807 277.757 302.968 291.496L366 380H304L252.272 305H218V380H156ZM218 253H258C278.987 253 296 235.987 296 215C296 194.013 278.987 177 258 177H218V253Z" fill="none" stroke="url(#iconStroke)" stroke-width="18" stroke-linejoin="round"/>
  </g>

  <path d="M156 380V132H266C312.392 132 350 169.608 350 216C350 249.119 330.807 277.757 302.968 291.496L366 380H304L252.272 305H218V380H156ZM218 253H258C278.987 253 296 235.987 296 215C296 194.013 278.987 177 258 177H218V253Z" fill="none" stroke="url(#iconStroke)" stroke-width="14" stroke-linejoin="round"/>

  <path d="M330 142L382 142" stroke="#67E8F9" stroke-width="10" stroke-linecap="round"/>
  <path d="M366 144V196" stroke="#67E8F9" stroke-width="10" stroke-linecap="round"/>
  <circle cx="366" cy="220" r="18" fill="#67E8F9" fill-opacity="0.95"/>
</svg>
